<?xml version="1.0" standalone="no"?>
<svg viewBox="0 0 200 200" xmlns="http://www.w3.org/2000/svg">
  <path fill="#8B4513" d="M12.5,-24.3C24.4,-14.8,47.9,-28,49.2,-27.8C50.4,-27.5,29.4,-13.7,29.9,0.3C30.3,14.2,52.2,28.5,53.1,32.5C54,36.5,34,30.4,21.6,32.7C9.3,35,4.7,45.8,1.4,43.4C-1.9,41,-3.8,25.5,-16.2,23.2C-28.5,20.9,-51.3,31.8,-58.1,30.2C-65,28.5,-56,14.3,-50.5,3.2C-45,-7.9,-43.1,-15.9,-42.5,-28.3C-41.9,-40.8,-42.5,-57.8,-35.7,-70.2C-28.8,-82.6,-14.4,-90.4,-7,-78.2C0.3,-66,0.6,-33.8,12.5,-24.3Z" transform="translate(100 100)" />
</svg>
