<?xml version="1.0" standalone="no"?>
<svg viewBox="0 0 200 200" xmlns="http://www.w3.org/2000/svg">
  <path fill="#BB9457" d="M27.3,-56.3C28,-47,15.9,-24.6,13.5,-13C11.1,-1.5,18.3,-0.7,24.1,3.4C29.9,7.5,34.3,14.9,33.6,21.1C32.9,27.2,27.1,32,20.7,30.7C14.2,29.3,7.1,21.7,-3.7,28.1C-14.5,34.5,-29,54.9,-32.8,54.8C-36.6,54.6,-29.6,33.8,-32.4,21.3C-35.1,8.7,-47.6,4.4,-46.2,0.8C-44.7,-2.7,-29.4,-5.4,-23,-11.7C-16.6,-18,-19.2,-27.9,-16.9,-36.2C-14.5,-44.6,-7.3,-51.4,3,-56.7C13.3,-62,26.7,-65.6,27.3,-56.3Z" transform="translate(100 100)" />
</svg>
