<?xml version="1.0" standalone="no"?>
<svg viewBox="0 0 200 200" xmlns="http://www.w3.org/2000/svg">
  <path fill="#FFE6A7" d="M33.7,-55.1C44.4,-52.1,54.5,-44.7,62,-34.8C69.4,-24.8,74.4,-12.4,72,-1.3C69.7,9.8,60.2,19.5,51.6,27.4C42.9,35.3,35.1,41.3,26.7,47.8C18.2,54.3,9.1,61.3,-2.9,66.4C-15,71.4,-29.9,74.6,-39.5,68.7C-49.1,62.9,-53.3,48,-52.9,35.1C-52.6,22.1,-47.7,11.1,-45.1,1.5C-42.5,-8.1,-42.3,-16.2,-40.2,-24.8C-38,-33.5,-34,-42.7,-27,-47.8C-20,-53,-10,-53.9,0.7,-55.2C11.5,-56.5,22.9,-58,33.7,-55.1Z" transform="translate(100 100)" />
</svg>
